<svg width="229" height="228" viewBox="0 0 229 228" fill="none" xmlns="http://www.w3.org/2000/svg">
<g clip-path="url(#clip0_263_119)">
<path opacity="0.999" fill-rule="evenodd" clip-rule="evenodd" d="M228.791 0.208374C228.791 75.9306 228.791 151.652 228.791 227.375C152.597 227.375 76.4029 227.375 0.208496 227.375C0.208496 151.652 0.208496 75.9306 0.208496 0.208374C76.4029 0.208374 152.597 0.208374 228.791 0.208374Z" fill="#013398"/>
<path fill-rule="evenodd" clip-rule="evenodd" d="M113.666 4.37663C114.082 4.36416 114.36 4.57257 114.5 5.00185C115.687 8.21249 116.66 11.4776 117.42 14.7971C121.315 14.7277 125.209 14.7972 129.099 15.0055C125.95 17.2014 122.891 19.4939 119.923 21.883C121.276 25.3127 122.319 28.7862 123.051 32.3035C120.109 30.1238 117.119 28.0397 114.083 26.0512C111.046 28.0397 108.057 30.1238 105.115 32.3035C106.171 28.7193 107.144 25.1069 108.035 21.4662C105.045 19.3126 102.056 17.1591 99.0664 15.0055C102.957 14.7972 106.85 14.7277 110.746 14.7971C111.655 11.3004 112.629 7.82689 113.666 4.37663Z" fill="#F6C80C"/>
<path fill-rule="evenodd" clip-rule="evenodd" d="M161.218 17.298C161.633 17.2855 161.912 17.494 162.052 17.9232C163.24 21.1365 164.213 24.4015 164.972 27.7185C168.728 27.6491 172.482 27.7186 176.234 27.9269C173.171 30.0219 170.251 32.2449 167.474 34.596C168.591 37.942 169.703 41.2765 170.811 44.5997C170.533 44.8777 170.255 44.8777 169.977 44.5997C167.138 42.6656 164.357 40.6511 161.635 38.5558C158.78 40.4684 155.999 42.4831 153.292 44.5997C152.945 44.8864 152.667 44.8168 152.458 44.3912C153.613 41.1371 154.725 37.872 155.795 34.596C153.002 32.2235 150.082 30.0005 147.035 27.9269C150.651 27.788 154.265 27.649 157.881 27.5101C159.089 24.1401 160.201 20.7361 161.218 17.298Z" fill="#F8C90A"/>
<path fill-rule="evenodd" clip-rule="evenodd" d="M70.285 27.3017C73.9002 27.5796 77.515 27.8574 81.1302 28.1353C78.0919 30.0607 75.172 32.1448 72.3706 34.3876C73.8043 37.836 74.7774 41.3095 75.2905 44.8081C72.444 42.6219 69.5242 40.5376 66.5309 38.5558C63.5043 40.7281 60.5148 42.9512 57.5628 45.2249C58.3386 41.6444 59.3814 38.1014 60.6912 34.596C57.9144 32.245 54.9946 30.0219 51.9316 27.9269C55.6832 27.7186 59.4373 27.6492 63.1939 27.7185C64.0027 23.9742 65.1844 20.3617 66.7395 16.8812C67.8949 20.4155 69.0766 23.889 70.285 27.3017Z" fill="#F8C90C"/>
<path fill-rule="evenodd" clip-rule="evenodd" d="M70.2852 27.3017C74.0497 27.1635 77.8038 27.3024 81.5475 27.7185C81.4957 27.9714 81.3568 28.1103 81.1303 28.1353C77.5151 27.8574 73.9004 27.5796 70.2852 27.3017Z" fill="#495970"/>
<path fill-rule="evenodd" clip-rule="evenodd" d="M81.9645 91.4918C82.1034 81.3456 81.9645 71.2027 81.5474 61.064C81.2942 61.1157 81.1553 61.2545 81.1302 61.4809C78.4239 63.4833 75.5041 65.1505 72.3707 66.4827C71.9573 64.8383 71.8184 63.1711 71.9535 61.4809C76.6983 59.6589 80.4524 56.602 83.2158 52.3108C84.4372 51.9007 85.6885 51.7619 86.9699 51.894C86.9699 65.0934 86.9699 78.2924 86.9699 91.4918C85.3014 91.4918 83.633 91.4918 81.9645 91.4918Z" fill="#F8C70C"/>
<path fill-rule="evenodd" clip-rule="evenodd" d="M108.66 91.4918C108.799 81.3456 108.66 71.2027 108.243 61.064C107.99 61.1157 107.851 61.2545 107.826 61.4809C105.12 63.4833 102.2 65.1505 99.0665 66.4827C98.6531 64.8383 98.5142 63.1711 98.6493 61.4809C103.394 59.6589 107.148 56.602 109.912 52.3108C111.133 51.9007 112.384 51.7619 113.666 51.894C113.666 65.0934 113.666 78.2924 113.666 91.4918C111.997 91.4918 110.329 91.4918 108.66 91.4918Z" fill="#F8C70C"/>
<path fill-rule="evenodd" clip-rule="evenodd" d="M135.356 51.894C141.013 50.9474 145.81 52.4758 149.747 56.479C152.737 62.4582 151.903 67.8769 147.244 72.7349C143.666 76.3125 139.842 79.5774 135.773 82.5302C134.506 83.6568 133.394 84.9073 132.436 86.2815C138.831 86.4899 145.227 86.5595 151.624 86.4899C151.624 88.1572 151.624 89.8245 151.624 91.4918C142.864 91.4918 134.105 91.4918 125.345 91.4918C125.593 88.2151 126.775 85.2974 128.891 82.7386C133.618 78.5704 138.346 74.4022 143.073 70.234C144.721 68.4446 145.834 66.3605 146.41 63.9817C146.37 59.3559 144.007 56.8549 139.319 56.479C134.394 56.6073 131.683 59.1083 131.185 63.9817C129.516 63.8429 127.848 63.7037 126.179 63.5649C126.612 57.5785 129.671 53.6879 135.356 51.894Z" fill="#FAC909"/>
<path fill-rule="evenodd" clip-rule="evenodd" d="M31.4928 51.8939C32.3077 52.9947 32.9334 54.2452 33.3699 55.6453C34.0408 57.864 34.6665 60.0869 35.2469 62.3144C39.0036 62.2452 42.7576 62.3144 46.5092 62.5228C43.4217 64.619 40.5018 66.9115 37.7497 69.4003C38.9939 72.8524 40.0367 76.3258 40.8781 79.8208C37.936 77.6412 34.9467 75.5572 31.9099 73.5685C28.755 75.3904 25.7656 77.4745 22.9418 79.8208C23.6766 76.2945 24.7194 72.8207 26.0702 69.4003C23.102 67.0111 20.0431 64.7186 16.8936 62.5228C20.6477 62.384 24.4018 62.2448 28.1558 62.106C29.477 58.7706 30.5893 55.3669 31.4928 51.8939Z" fill="#F7C80C"/>
<path fill-rule="evenodd" clip-rule="evenodd" d="M195.839 51.894C196.255 51.8815 196.533 52.0899 196.673 52.5192C197.861 55.7325 198.835 58.9974 199.593 62.3144C203.488 62.2452 207.382 62.3144 211.272 62.5228C207.974 64.5161 204.915 66.8086 202.096 69.4004C203.446 72.8208 204.489 76.2945 205.224 79.8208C202.282 77.6413 199.293 75.5572 196.256 73.5686C193.219 75.5572 190.23 77.6413 187.288 79.8208C188.097 76.3875 189.139 72.9838 190.416 69.6088C190.308 69.0832 190.03 68.6663 189.582 68.3583C186.866 66.5147 184.224 64.5698 181.657 62.5228C185.408 62.3144 189.162 62.2452 192.919 62.3144C193.81 58.8123 194.783 55.339 195.839 51.894Z" fill="#F7C80B"/>
<path fill-rule="evenodd" clip-rule="evenodd" d="M81.1301 61.4808C81.1552 61.2545 81.2941 61.1157 81.5472 61.064C81.9644 71.2027 82.1033 81.3455 81.9644 91.4918C81.6862 81.4881 81.4083 71.4844 81.1301 61.4808Z" fill="#405972"/>
<path fill-rule="evenodd" clip-rule="evenodd" d="M107.826 61.4808C107.851 61.2545 107.99 61.1157 108.243 61.064C108.66 71.2027 108.799 81.3455 108.66 91.4918C108.382 81.4881 108.104 71.4844 107.826 61.4808Z" fill="#405972"/>
<path fill-rule="evenodd" clip-rule="evenodd" d="M22.7333 109.415C26.3483 109.693 29.9634 109.971 33.5784 110.249C30.55 112.161 27.6302 114.245 24.8189 116.501C25.9724 119.75 27.0847 123.015 28.1558 126.296C28.0168 126.505 27.8777 126.713 27.7387 126.921C24.8923 124.735 21.9725 122.651 18.9792 120.669C15.9526 122.842 12.9632 125.064 10.011 127.338C10.9541 123.811 11.9969 120.269 13.1394 116.709C10.3627 114.358 7.44285 112.135 4.37988 110.04C8.1314 109.832 11.8855 109.763 15.6422 109.832C16.619 106.139 17.8009 102.527 19.1877 98.9945C20.3432 102.529 21.525 106.002 22.7333 109.415Z" fill="#F8C90C"/>
<path fill-rule="evenodd" clip-rule="evenodd" d="M208.77 98.9945C209.027 99.0408 209.235 99.1796 209.395 99.4113C210.485 102.885 211.528 106.358 212.524 109.832C216.28 109.763 220.034 109.832 223.786 110.04C220.723 112.135 217.803 114.358 215.026 116.709C216.241 120.253 217.284 123.796 218.155 127.338C215.203 125.064 212.213 122.842 209.187 120.669C206.332 122.582 203.551 124.596 200.844 126.713C200.497 127 200.219 126.93 200.01 126.505C201.09 123.232 202.202 119.967 203.347 116.709C200.515 114.389 197.595 112.166 194.587 110.04C198.203 109.901 201.817 109.762 205.433 109.623C206.706 106.133 207.818 102.59 208.77 98.9945Z" fill="#F8C90B"/>
<path fill-rule="evenodd" clip-rule="evenodd" d="M52.3488 103.996C53.6002 103.996 54.8515 103.996 56.1029 103.996C56.0332 110.111 56.1029 116.225 56.3115 122.336C57.1274 125.25 59.0741 126.639 62.1512 126.505C64.7281 126.694 66.6749 125.722 67.9909 123.587C68.5903 117.081 68.7988 110.55 68.6166 103.996C69.729 103.996 70.8411 103.996 71.9535 103.996C72.1371 110.828 71.9285 117.636 71.3279 124.42C69.48 128.074 66.4905 129.741 62.3597 129.422C57.7977 129.75 54.6693 127.804 52.9745 123.587C52.3901 117.075 52.1815 110.545 52.3488 103.996Z" fill="#ECC01F"/>
<path fill-rule="evenodd" clip-rule="evenodd" d="M22.7332 109.415C26.4975 109.277 30.2516 109.416 33.9954 109.832C33.9439 110.085 33.8049 110.224 33.5783 110.249C29.9633 109.971 26.3482 109.693 22.7332 109.415Z" fill="#445874"/>
<path fill-rule="evenodd" clip-rule="evenodd" d="M82.3816 110.249C84.1189 110.093 85.6485 110.51 86.9699 111.499C86.552 112.337 86.1348 113.17 85.7185 114C83.874 112.775 82.2748 113.053 80.9216 114.834C80.3339 119.531 80.1254 124.255 80.296 129.005C79.1835 129.005 78.0714 129.005 76.959 129.005C76.959 122.892 76.959 116.779 76.959 110.665C77.9321 110.665 78.9057 110.665 79.8788 110.665C79.8121 111.374 79.8813 112.068 80.0874 112.75C80.6547 111.698 81.4193 110.864 82.3816 110.249Z" fill="#EDC11A"/>
<path fill-rule="evenodd" clip-rule="evenodd" d="M93.2268 110.249C95.9589 109.781 98.3223 110.476 100.318 112.333C100.705 111.837 100.844 111.282 100.735 110.665C101.708 110.665 102.682 110.665 103.655 110.665C103.724 117.058 103.655 123.449 103.446 129.839C103.095 133.108 101.357 135.262 98.2322 136.3C94.5224 137.241 91.3939 136.338 88.847 133.591C88.4395 132.657 88.2309 131.684 88.2213 130.673C89.0668 130.605 89.9011 130.675 90.724 130.881C91.7335 132.882 93.402 133.785 95.7295 133.591C99.4281 133.16 100.888 131.076 100.109 127.338C97.0447 129.487 93.9163 129.556 90.724 127.547C88.573 125.277 87.5998 122.567 87.8042 119.419C87.5827 115.076 89.3905 112.02 93.2268 110.249Z" fill="#F2C416"/>
<path fill-rule="evenodd" clip-rule="evenodd" d="M112.831 110.249C120.245 109.737 123.861 113.211 123.677 120.669C119.227 120.669 114.778 120.669 110.329 120.669C110.659 125.098 113.023 126.974 117.42 126.296C118.643 125.754 119.616 124.921 120.34 123.795C121.174 123.517 122.008 123.517 122.842 123.795C123.06 124.029 123.199 124.307 123.259 124.629C121.058 128.887 117.582 130.415 112.831 129.214C109.76 128.091 107.883 125.937 107.2 122.753C106.057 117.125 107.934 112.957 112.831 110.249Z" fill="#F4C513"/>
<path fill-rule="evenodd" clip-rule="evenodd" d="M133.271 110.249C136.802 109.48 139.513 110.592 141.404 113.583C142.005 118.693 142.213 123.833 142.03 129.006C140.918 129.006 139.806 129.006 138.693 129.006C138.763 124.418 138.693 119.833 138.485 115.25C136.914 113.097 134.898 112.611 132.436 113.792C131.653 114.435 131.027 115.199 130.559 116.084C130.351 120.389 130.281 124.696 130.351 129.006C129.238 129.006 128.126 129.006 127.014 129.006C127.014 122.892 127.014 116.779 127.014 110.665C127.987 110.665 128.96 110.665 129.934 110.665C129.867 111.374 129.936 112.069 130.142 112.75C131.176 111.858 132.219 111.024 133.271 110.249Z" fill="#F0C319"/>
<path fill-rule="evenodd" clip-rule="evenodd" d="M151.624 110.249C156.284 109.38 159.483 111.117 161.218 115.459C159.408 117.069 158.087 116.722 157.255 114.417C153.668 112.176 151.026 113.009 149.33 116.918C148.739 119.993 149.226 122.841 150.79 125.463C152.875 126.852 154.961 126.852 157.047 125.463C157.756 124.531 158.174 123.489 158.298 122.336C159.542 122.171 160.654 122.449 161.635 123.17C160.043 128.064 156.706 130.079 151.624 129.214C148.392 128.065 146.515 125.773 145.993 122.336C144.884 116.811 146.761 112.782 151.624 110.249Z" fill="#F1C317"/>
<path fill-rule="evenodd" clip-rule="evenodd" d="M168.726 110.249C176.14 109.737 179.755 113.211 179.571 120.669C175.122 120.669 170.673 120.669 166.223 120.669C166.554 125.098 168.917 126.974 173.314 126.296C174.537 125.754 175.511 124.921 176.234 123.795C177.068 123.517 177.903 123.517 178.737 123.795C178.955 124.029 179.094 124.307 179.154 124.629C176.953 128.887 173.477 130.415 168.726 129.214C165.655 128.091 163.778 125.937 163.095 122.753C161.951 117.125 163.828 112.957 168.726 110.249Z" fill="#F4C513"/>
<path fill-rule="evenodd" clip-rule="evenodd" d="M94.0611 113.166C97.3743 112.838 99.5296 114.228 100.527 117.335C100.948 119.654 100.67 121.877 99.6923 124.004C97.0043 126.703 94.3623 126.703 91.7669 124.004C90.41 121.081 90.41 118.164 91.7669 115.25C92.4886 114.458 93.2531 113.763 94.0611 113.166Z" fill="#103596"/>
<path fill-rule="evenodd" clip-rule="evenodd" d="M113.666 113.166C117.136 112.672 119.36 114.062 120.34 117.335C117.014 117.751 113.678 117.889 110.329 117.751C110.534 115.525 111.647 113.997 113.666 113.166Z" fill="#0C3596"/>
<path fill-rule="evenodd" clip-rule="evenodd" d="M169.56 113.166C173.03 112.672 175.255 114.062 176.234 117.335C172.909 117.751 169.572 117.889 166.223 117.751C166.428 115.525 167.541 113.997 169.56 113.166Z" fill="#0C3596"/>
<path fill-rule="evenodd" clip-rule="evenodd" d="M118.254 142.76C124.041 143.325 128.838 145.826 132.645 150.263C134.975 152.832 136.782 155.749 138.067 159.016C138.394 160.375 138.325 161.695 137.859 162.976C136.896 163.291 136.061 163.083 135.356 162.351C132.561 153.653 126.79 147.956 118.045 145.261C117.763 144.387 117.832 143.553 118.254 142.76Z" fill="#F4C512"/>
<path fill-rule="evenodd" clip-rule="evenodd" d="M101.986 146.095C103.673 145.869 105.203 146.216 106.575 147.137C108.626 149.324 110.155 151.825 111.163 154.64C111.001 156.423 110.237 157.881 108.869 159.016C108.678 160.291 108.817 161.542 109.286 162.768C111.757 167.325 115.372 170.52 120.131 172.355C120.618 172.285 121.104 172.216 121.591 172.146C123.032 170.055 124.979 169.36 127.431 170.062C136.121 173.651 136.816 178.514 129.516 184.651C122.116 186.077 115.581 184.271 109.912 179.232C105.157 174.902 101.194 169.97 98.0236 164.435C96.1933 160.595 95.4979 156.565 95.938 152.347C97.7583 150.042 99.7747 147.958 101.986 146.095Z" fill="#FBCA06"/>
<path fill-rule="evenodd" clip-rule="evenodd" d="M31.4928 146.512C33.3043 149.729 34.5556 153.202 35.2469 156.932C39.1426 156.863 43.0358 156.932 46.9263 157.141C43.8263 159.141 40.8371 161.295 37.9582 163.601C38.9315 167.214 39.9048 170.826 40.8781 174.439C37.936 172.259 34.9467 170.175 31.9099 168.186C28.8732 170.175 25.8839 172.259 22.9418 174.439C23.675 170.917 24.7178 167.443 26.0702 164.018C23.102 161.629 20.0431 159.337 16.8936 157.141C20.7842 156.932 24.6773 156.863 28.573 156.932C29.4606 153.437 30.4339 149.964 31.4928 146.512Z" fill="#F7C80C"/>
<path fill-rule="evenodd" clip-rule="evenodd" d="M195.839 146.512C196.255 146.499 196.533 146.708 196.673 147.137C197.861 150.35 198.835 153.615 199.593 156.932C203.488 156.863 207.382 156.932 211.272 157.141C208.123 159.337 205.064 161.629 202.096 164.018C203.448 167.443 204.491 170.917 205.224 174.439C202.282 172.259 199.293 170.175 196.256 168.186C193.219 170.175 190.23 172.259 187.288 174.439C188.147 171.025 189.19 167.622 190.416 164.227C190.308 163.701 190.03 163.284 189.582 162.976C186.866 161.133 184.224 159.188 181.657 157.141C185.408 156.932 189.162 156.863 192.919 156.932C193.828 153.436 194.802 149.962 195.839 146.512Z" fill="#F7C80C"/>
<path fill-rule="evenodd" clip-rule="evenodd" d="M119.088 149.846C124.37 151.439 128.194 154.773 130.559 159.85C131.114 161.933 130.349 162.836 128.265 162.559C126.121 158.193 122.853 154.928 118.463 152.764C118.115 151.651 118.324 150.678 119.088 149.846Z" fill="#F2C415"/>
<path fill-rule="evenodd" clip-rule="evenodd" d="M147.035 192.362C150.651 192.084 154.265 191.806 157.881 191.528C159.174 188.278 160.356 184.943 161.426 181.525C162.926 184.879 164.109 188.352 164.972 191.945C168.728 191.876 172.482 191.945 176.234 192.154C173.171 194.248 170.251 196.472 167.474 198.823C168.688 202.361 169.731 205.904 170.603 209.452C167.651 207.178 164.661 204.955 161.635 202.782C158.469 204.764 155.479 206.988 152.667 209.452C153.447 205.86 154.489 202.317 155.795 198.823C153.011 196.462 150.091 194.308 147.035 192.362Z" fill="#F8C80C"/>
<path fill-rule="evenodd" clip-rule="evenodd" d="M51.9316 192.362C55.6857 192.084 59.4398 191.806 63.1939 191.528C64.1863 187.973 65.368 184.5 66.7395 181.108C67.7589 184.719 68.9406 188.262 70.285 191.737C73.9002 191.876 77.515 192.015 81.1302 192.154C78.1223 194.279 75.2025 196.502 72.3706 198.823C73.7217 202.221 74.6948 205.626 75.2905 209.035C72.2972 207.053 69.3774 204.969 66.5309 202.782C63.5043 204.955 60.5148 207.178 57.5628 209.452C58.5059 205.925 59.5487 202.382 60.6912 198.823C57.9478 196.429 55.0279 194.275 51.9316 192.362Z" fill="#F8C90B"/>
<path fill-rule="evenodd" clip-rule="evenodd" d="M63.1941 191.528C59.44 191.806 55.6859 192.084 51.9318 192.362C51.7053 192.337 51.5664 192.198 51.5146 191.945C55.3981 191.529 59.2911 191.39 63.1941 191.528Z" fill="#364E7B"/>
<path fill-rule="evenodd" clip-rule="evenodd" d="M157.881 191.528C154.266 191.806 150.651 192.084 147.036 192.362C146.809 192.337 146.67 192.198 146.618 191.945C150.362 191.529 154.116 191.39 157.881 191.528Z" fill="#344F7B"/>
<path fill-rule="evenodd" clip-rule="evenodd" d="M113.666 194.029C115.471 197.213 116.723 200.687 117.42 204.45C121.315 204.381 125.209 204.45 129.099 204.658C125.95 206.854 122.891 209.146 119.923 211.536C121.275 214.961 122.318 218.434 123.051 221.956C120.109 219.777 117.119 217.693 114.083 215.704C111.046 217.693 108.057 219.777 105.115 221.956C106.172 218.367 107.146 214.755 108.035 211.119C105.045 208.965 102.056 206.812 99.0664 204.658C102.957 204.45 106.85 204.381 110.746 204.45C111.783 200.999 112.756 197.526 113.666 194.029Z" fill="#F7C80D"/>
</g>
<defs>
<clipPath id="clip0_263_119">
<rect width="229" height="228" fill="white"/>
</clipPath>
</defs>
</svg>
